<mxfile host="Electron" agent="Mozilla/5.0 (Windows NT 10.0; Win64; x64) AppleWebKit/537.36 (KHTML, like Gecko) draw.io/26.1.1 Chrome/132.0.6834.210 Electron/34.3.3 Safari/537.36" version="26.1.1">
  <diagram id="C5RBs43oDa-KdzZeNtuy" name="Page-1">
    <mxGraphModel dx="1247" dy="770" grid="1" gridSize="10" guides="1" tooltips="1" connect="1" arrows="1" fold="1" page="1" pageScale="1" pageWidth="827" pageHeight="1169" background="none" math="0" shadow="0">
      <root>
        <mxCell id="WIyWlLk6GJQsqaUBKTNV-0" />
        <mxCell id="WIyWlLk6GJQsqaUBKTNV-1" parent="WIyWlLk6GJQsqaUBKTNV-0" />
        <mxCell id="ML8K1QAUaZWM3euhSfi2-0" value="" style="shape=umlActor;verticalLabelPosition=bottom;verticalAlign=top;html=1;outlineConnect=0;" vertex="1" parent="WIyWlLk6GJQsqaUBKTNV-1">
          <mxGeometry x="320" y="400" width="160" height="320" as="geometry" />
        </mxCell>
        <mxCell id="ML8K1QAUaZWM3euhSfi2-1" value="控制器" style="rounded=1;whiteSpace=wrap;html=1;" vertex="1" parent="WIyWlLk6GJQsqaUBKTNV-1">
          <mxGeometry x="360" y="160" width="80" height="40" as="geometry" />
        </mxCell>
        <mxCell id="ML8K1QAUaZWM3euhSfi2-5" value="行为名称、行为条件、世界环境" style="edgeStyle=elbowEdgeStyle;orthogonalLoop=1;jettySize=auto;html=1;rounded=0;fontSize=12;startArrow=none;startFill=0;horizontal=1;textDirection=vertical-lr;" edge="1" parent="WIyWlLk6GJQsqaUBKTNV-1" source="ML8K1QAUaZWM3euhSfi2-0" target="ML8K1QAUaZWM3euhSfi2-1">
          <mxGeometry y="10" width="120" relative="1" as="geometry">
            <mxPoint x="760" y="700" as="sourcePoint" />
            <mxPoint x="880" y="420" as="targetPoint" />
            <Array as="points">
              <mxPoint x="390" y="280" />
            </Array>
            <mxPoint as="offset" />
          </mxGeometry>
        </mxCell>
        <mxCell id="ML8K1QAUaZWM3euhSfi2-6" value="决策结果（当前行为）" style="edgeStyle=elbowEdgeStyle;orthogonalLoop=1;jettySize=auto;html=1;rounded=0;fontSize=12;startSize=8;endSize=8;horizontal=1;textDirection=vertical-lr;" edge="1" parent="WIyWlLk6GJQsqaUBKTNV-1" source="ML8K1QAUaZWM3euhSfi2-1" target="ML8K1QAUaZWM3euhSfi2-0">
          <mxGeometry y="10" width="120" relative="1" as="geometry">
            <mxPoint x="870" y="700" as="sourcePoint" />
            <mxPoint x="830" y="810" as="targetPoint" />
            <Array as="points">
              <mxPoint x="410" y="280" />
            </Array>
            <mxPoint as="offset" />
          </mxGeometry>
        </mxCell>
      </root>
    </mxGraphModel>
  </diagram>
</mxfile>
